# xmcd
#
# Track frame offsets:
#	150
#	11300
#	23647
#	34400
#	43180
#	52300
#	65835
#	75500
#	86395
#	97190
#	108942
#	119767
#	131575
#	143145
#	155240
#	167920
#	179667
#	192840
#	204240
#	214660
#	224255
#	236587
#	247157
#	258395
#	269172
#
# Disc length: 3776 seconds
#
# Revision: 2
# Processed by: cddbd v1.5.2PL0 Copyright (c) Steve Scherf et al.
# Submitted via: EZCDAudioConverter 6.0.4.1
#
DISCID=820ebe19
DTITLE=Various Artist - 25 Country Love Songs
DYEAR=1997
DGENRE=Country
TTITLE0=Hank Locklin - Send me the pillow you dream on
TTITLE1=Kenny Rogers - Reuben James
TTITLE2=Willie Nelson - I feel sorry for him
TTITLE3=Patsy Cline - Come on in
TTITLE4=Frankie Laine - Rawhide
TTITLE5=Willie Nelson - You'll always have someone
TTITLE6=Dave Dudley - Six days on the road
TTITLE7=Kenny Rogers - Always leaving always gone
TTITLE8=Waylon Jennings - Burning memories
TTITLE9=Patsy Cline - Walking after midnight
TTITLE10=Guy Mitchell - Singing the blues
TTITLE11=Roy Drusky - Take these chains from my heart
TTITLE12=Frankie Laine - Mule train
TTITLE13=Waylon Jennings - Don't think twice
TTITLE14=Willie Nelson - If I don't understand
TTITLE15=Johnnie Lee - Ramblin' Rose
TTITLE16=Lynn Anderson - Rose garden
TTITLE17=Patsy Cline - The heart you break may be your own
TTITLE18=Kenny Rogers - Ticket to nowhere
TTITLE19=Barbara Mandrell - Release me
TTITLE20=Willie Nelson - I can't find the time
TTITLE21=Stonewall Jackson - Waterloo
TTITLE22=Roy Drusky - The last letter
TTITLE23=Freddy Fender - Wild side of life
TTITLE24=Kenny Rogers - Sunshine
EXTD=
EXTT0=
EXTT1=
EXTT2=
EXTT3=
EXTT4=
EXTT5=
EXTT6=
EXTT7=
EXTT8=
EXTT9=
EXTT10=
EXTT11=
EXTT12=
EXTT13=
EXTT14=
EXTT15=
EXTT16=
EXTT17=
EXTT18=
EXTT19=
EXTT20=
EXTT21=
EXTT22=
EXTT23=
EXTT24=
PLAYORDER=
